<svg width="10" height="14" viewBox="0 0 10 14" fill="none" xmlns="http://www.w3.org/2000/svg">
<path d="M5.48646 11.3841C6.62989 11.3432 7.41892 11.0236 7.85356 10.4252C8.08091 10.1184 8.19458 9.76292 8.19458 9.3589C8.19458 8.71964 7.88699 8.23379 7.27182 7.90137C6.91742 7.70703 6.3223 7.52292 5.48646 7.34904V11.3841ZM2.08626 3.98137C2.08626 4.48767 2.30358 4.88402 2.73821 5.17041C3.17954 5.4568 3.77131 5.65626 4.51354 5.76877V2.16329C3.63758 2.18886 3.01237 2.39342 2.63791 2.77699C2.27014 3.16055 2.08626 3.56201 2.08626 3.98137ZM0.280843 4.07342C0.280843 3.29607 0.651956 2.59543 1.39418 1.97151C2.1431 1.34758 3.18957 1.0305 4.5336 1.02027V0H5.48646V1.00493C6.81712 1.07653 7.83684 1.37826 8.54564 1.91014C9.26112 2.4369 9.63557 3.13498 9.66901 4.00438H7.91374C7.86693 3.61571 7.72986 3.28073 7.50251 2.99945C7.08124 2.48292 6.40923 2.21187 5.48646 2.1863V5.91452C7.03778 6.24694 8.09094 6.5589 8.64594 6.85041C9.54865 7.33114 10 8.04201 10 8.98301C10 10.3434 9.4216 11.31 8.26479 11.8827C7.62287 12.1998 6.69676 12.4095 5.48646 12.5118V14H4.5336V12.5118C2.58776 12.4146 1.26713 11.8879 0.571715 10.9315C0.190572 10.415 0 9.7169 0 8.83726H1.77533C1.82882 9.5379 1.97258 10.0493 2.20662 10.3715C2.6212 10.9494 3.39017 11.2742 4.51354 11.3458V7.16493C3.06921 6.95525 2.00267 6.60493 1.31394 6.11397C0.625209 5.62301 0.280843 4.94283 0.280843 4.07342Z" fill="white"/>
</svg>
