<svg width="13" height="14" viewBox="0 0 13 14" fill="none" xmlns="http://www.w3.org/2000/svg">
<path d="M3.74512 0.390625V1.55664H9.25488V0.390625H9.6543V1.55859H12.6094V13.6094H0.390625V1.55664H3.3457V0.390625H3.74512ZM0.791992 13.2266H12.21V5.44434H0.791992V13.2266ZM7.88184 10.8906V11.2754H7.48242V10.8906H7.88184ZM5.51758 10.8906V11.2754H5.11816V10.8906H5.51758ZM3.1543 10.8906V11.2754H2.75488V10.8906H3.1543ZM10.2451 9.1416V9.52637H9.8457V9.1416H10.2451ZM7.88184 9.1416V9.52637H7.48242V9.1416H7.88184ZM5.51758 9.1416V9.52637H5.11816V9.1416H5.51758ZM3.1543 9.1416V9.52637H2.75488V9.1416H3.1543ZM10.2451 7.3916V7.77637H9.8457V7.3916H10.2451ZM7.88184 7.3916V7.77637H7.48242V7.3916H7.88184ZM5.51758 7.3916V7.77637H5.11816V7.3916H5.51758ZM0.791992 5.05762H12.208V1.94336H9.6543V3.10938H9.25488V1.94336H3.74512V3.10938H3.3457V1.94336H0.791992V5.05762Z" fill="white" stroke="white" stroke-width="0.78125"/>
</svg>
