<svg width="16" height="17" viewBox="0 0 16 17" fill="none" xmlns="http://www.w3.org/2000/svg">
<path fill-rule="evenodd" clip-rule="evenodd" d="M8 5.53488C6.37216 5.53488 5.05253 6.86241 5.05253 8.5C5.05253 10.1376 6.37216 11.4651 8 11.4651C9.62786 11.4651 10.9475 10.1376 10.9475 8.5C10.9475 6.86241 9.62786 5.53488 8 5.53488ZM6.23152 8.5C6.23152 7.51748 7.02332 6.72093 8 6.72093C8.97667 6.72093 9.76848 7.51748 9.76848 8.5C9.76848 9.48252 8.97667 10.2791 8 10.2791C7.02332 10.2791 6.23152 9.48252 6.23152 8.5Z" fill="white"/>
<path fill-rule="evenodd" clip-rule="evenodd" d="M7.98011 3.35871e-07C7.63082 -7.57111e-06 7.33913 -7.60808e-06 7.09972 0.0164231C6.85048 0.0335338 6.61508 0.0704119 6.38684 0.165517C5.85722 0.386209 5.43643 0.809509 5.21705 1.3423C5.10285 1.61968 5.07192 1.912 5.06011 2.22974C5.05061 2.48516 4.92248 2.69826 4.73338 2.80809C4.54428 2.91792 4.29676 2.923 4.07213 2.80356C3.79269 2.65498 3.52558 2.53576 3.22968 2.49657C2.66133 2.4213 2.08653 2.57624 1.63173 2.92731C1.43573 3.07861 1.28627 3.26527 1.14693 3.47385C1.01307 3.67422 0.867258 3.9283 0.692587 4.23266L0.672741 4.26725C0.498062 4.57159 0.352245 4.82566 0.246679 5.04246C0.136789 5.26816 0.0508253 5.4917 0.0185761 5.7381C-0.0562503 6.30986 0.0977727 6.8881 0.446745 7.34566C0.628403 7.58374 0.864554 7.7569 1.13214 7.92603C1.34733 8.06203 1.46674 8.28026 1.46673 8.5C1.46672 8.71966 1.3473 8.93789 1.13214 9.07389C0.864523 9.24302 0.628348 9.41618 0.446674 9.65434C0.097694 10.1118 -0.056321 10.6901 0.0184975 11.2618C0.0507467 11.5082 0.136711 11.7318 0.2466 11.9575C0.352167 12.1743 0.497984 12.4283 0.672655 12.7327L0.692509 12.7673C0.86718 13.0717 1.01299 13.3257 1.14685 13.5261C1.28619 13.7347 1.43566 13.9213 1.63165 14.0726C2.08645 14.4237 2.66125 14.5786 3.2296 14.5034C3.52548 14.4642 3.79258 14.345 4.072 14.1964C4.29666 14.0769 4.54422 14.082 4.73334 14.1919C4.92246 14.3017 5.05061 14.5148 5.06011 14.7703C5.07192 15.088 5.10286 15.3803 5.21705 15.6577C5.43643 16.1905 5.85722 16.6138 6.38684 16.8345C6.61508 16.9296 6.85048 16.9665 7.09972 16.9836C7.33913 17 7.63082 17 7.98011 17H8.0198C8.36918 17 8.66078 17 8.90027 16.9836C9.14951 16.9665 9.38491 16.9296 9.61316 16.8345C10.1428 16.6138 10.5636 16.1905 10.783 15.6577C10.8972 15.3803 10.928 15.088 10.9398 14.7702C10.9493 14.5148 11.0775 14.3017 11.2666 14.1918C11.4557 14.082 11.7033 14.0769 11.9279 14.1963C12.2073 14.3449 12.4744 14.4642 12.7703 14.5033C13.3387 14.5786 13.9135 14.4237 14.3683 14.0726C14.5643 13.9213 14.7137 13.7347 14.8531 13.5261C14.9869 13.3257 15.1327 13.0717 15.3074 12.7673L15.3272 12.7327C15.5019 12.4283 15.6478 12.1742 15.7533 11.9574C15.8632 11.7317 15.9491 11.5082 15.9814 11.2618C16.0562 10.69 15.9022 10.1118 15.5532 9.65426C15.3716 9.4161 15.1354 9.24302 14.8678 9.07389C14.6526 8.93789 14.5332 8.71966 14.5332 8.49992C14.5332 8.28026 14.6526 8.06211 14.8678 7.92611C15.1355 7.75698 15.3717 7.5839 15.5533 7.34566C15.9023 6.88815 16.0563 6.30992 15.9815 5.73816C15.9492 5.49176 15.8633 5.26821 15.7534 5.04252C15.6479 4.82573 15.502 4.57168 15.3273 4.26736L15.3075 4.23275C15.1328 3.92838 14.987 3.67428 14.8531 3.47391C14.7138 3.26532 14.5644 3.07866 14.3683 2.92736C13.9136 2.5763 13.3388 2.42135 12.7703 2.49663C12.4745 2.53582 12.2074 2.65502 11.928 2.80359C11.7034 2.92304 11.4558 2.91796 11.2667 2.80812C11.0775 2.69828 10.9493 2.48514 10.9398 2.2297C10.928 1.91197 10.8972 1.61967 10.783 1.3423C10.5636 0.809509 10.1428 0.386209 9.61316 0.165517C9.38491 0.0704119 9.14951 0.0335338 8.90027 0.0164231C8.66078 -7.60808e-06 8.36918 -7.57111e-06 8.0198 3.35871e-07H7.98011ZM6.83799 1.26128C6.89866 1.23601 6.99078 1.21271 7.17997 1.19972C7.3745 1.18637 7.62571 1.18605 8 1.18605C8.37428 1.18605 8.62549 1.18637 8.81994 1.19972C9.00921 1.21271 9.10133 1.23601 9.16193 1.26128C9.40268 1.3616 9.59399 1.55401 9.69365 1.79619C9.72517 1.87258 9.75118 1.99167 9.76172 2.27402C9.78498 2.90056 10.1065 3.50381 10.6772 3.83526C11.2478 4.16672 11.9279 4.14515 12.4789 3.85218C12.7272 3.72015 12.8428 3.68332 12.9242 3.67253C13.1826 3.63832 13.4439 3.70874 13.6506 3.86831C13.7027 3.90851 13.7688 3.97712 13.8746 4.13548C13.9834 4.29826 14.1092 4.51694 14.2963 4.84302C14.4835 5.16912 14.6088 5.38811 14.6946 5.56424C14.778 5.73558 14.804 5.8275 14.8126 5.89297C14.8466 6.15285 14.7766 6.4157 14.618 6.62366C14.5679 6.68926 14.4785 6.77153 14.2405 6.92185C13.7129 7.25544 13.3543 7.83708 13.3542 8.49992C13.3542 9.16284 13.7128 9.74456 14.2405 10.0782C14.4784 10.2285 14.5678 10.3107 14.6179 10.3763C14.7765 10.5843 14.8465 10.8471 14.8125 11.107C14.8039 11.1725 14.7779 11.2644 14.6945 11.4357C14.6088 11.6118 14.4834 11.8308 14.2963 12.1569C14.1091 12.483 13.9833 12.7017 13.8745 12.8645C13.7687 13.0228 13.7026 13.0914 13.6505 13.1316C13.4438 13.2912 13.1825 13.3616 12.9242 13.3274C12.8427 13.3166 12.7271 13.2798 12.4788 13.1478C11.9278 12.8548 11.2477 12.8333 10.677 13.1647C10.1065 13.4962 9.78498 14.0994 9.76172 14.726C9.75118 15.0083 9.72517 15.1274 9.69365 15.2038C9.59399 15.446 9.40268 15.6384 9.16193 15.7388C9.10133 15.764 9.00921 15.7873 8.81994 15.8003C8.62549 15.8136 8.37428 15.814 8 15.814C7.62571 15.814 7.3745 15.8136 7.17997 15.8003C6.99078 15.7873 6.89866 15.764 6.83799 15.7388C6.59732 15.6384 6.40601 15.446 6.30629 15.2038C6.27484 15.1274 6.24877 15.0083 6.23827 14.726C6.21498 14.0995 5.89352 13.4962 5.32283 13.1647C4.75215 12.8333 4.0721 12.8548 3.52109 13.1478C3.27277 13.2798 3.15721 13.3167 3.07572 13.3274C2.81737 13.3617 2.5561 13.2912 2.34938 13.1317C2.2973 13.0915 2.23117 13.0229 2.12539 12.8645C2.01664 12.7018 1.89077 12.4831 1.70362 12.157C1.51647 11.8309 1.39115 11.6119 1.30539 11.4358C1.22197 11.2644 1.19597 11.1725 1.1874 11.107C1.15339 10.8471 1.2234 10.5843 1.38203 10.3763C1.43206 10.3108 1.52155 10.2285 1.75938 10.0782C2.28708 9.74464 2.64568 9.16292 2.64571 8.50008C2.64575 7.83708 2.28714 7.25536 1.75939 6.92177C1.52161 6.77145 1.43213 6.6892 1.3821 6.6236C1.22348 6.41564 1.15347 6.15281 1.18748 5.89291C1.19605 5.82745 1.22205 5.73552 1.30547 5.5642C1.39123 5.38806 1.51655 5.16906 1.70369 4.84297C1.89085 4.51688 2.01672 4.2982 2.12547 4.13542C2.23125 3.97708 2.29738 3.90846 2.34945 3.86827C2.55618 3.70869 2.81745 3.63826 3.07579 3.67247C3.15729 3.68327 3.27286 3.7201 3.52121 3.85215C4.07219 4.14511 4.75221 4.16668 5.32286 3.83524C5.89352 3.5038 6.21498 2.90057 6.23827 2.27406C6.24877 1.99168 6.27484 1.87259 6.30629 1.79619C6.40601 1.55401 6.59732 1.3616 6.83799 1.26128Z" fill="white"/>
</svg>
