<svg width="104" height="104" viewBox="0 0 104 104" fill="none" xmlns="http://www.w3.org/2000/svg">
<path fill-rule="evenodd" clip-rule="evenodd" d="M96.1376 9.33632C82.5841 -6.37853 63.7595 1.9162 55.1654 7.06861L71.2253 20.9787C72.4311 22.023 72.5614 23.8465 71.5165 25.0513C70.4715 26.2564 68.6469 26.3866 67.4414 25.3423L45.7747 6.57592C45.6502 6.4682 45.5373 6.3522 45.4359 6.22944C29.9768 -4.29625 16.3398 -1.01923 5.15234 12.5636C-4.86595 24.7268 1.96445 46.6517 6.87463 62.4126C8.04538 66.1707 9.10699 69.5781 9.80501 72.4194C13.4304 87.177 16.8988 96.3731 24.8078 103.028C28.7245 106.324 33.1656 100.66 37.8511 94.685C41.9137 89.5043 46.1598 84.0895 50.4071 84.0765C54.585 84.0638 58.7638 89.4702 62.7701 94.6526C67.394 100.635 71.7877 106.319 75.684 103.028C82.1019 97.6073 84.7984 93.7204 88.4173 81.6207C85.228 83.016 81.7044 83.7904 78 83.7904C63.6405 83.7904 52 72.1569 52 57.8061C52 43.4553 63.6405 31.8219 78 31.8219C87.9398 31.8219 96.577 37.3964 100.952 45.5875L101.478 44.0813C105.119 32.5203 105.951 20.7154 96.1376 9.33632Z" fill="url(#paint0_linear_1_43)"/>
<path fill-rule="evenodd" clip-rule="evenodd" d="M78 78.0161C89.1684 78.0161 98.2222 68.9678 98.2222 57.8061C98.2222 46.6445 89.1684 37.5962 78 37.5962C66.8316 37.5962 57.7778 46.6445 57.7778 57.8061C57.7778 68.9678 66.8316 78.0161 78 78.0161ZM78 83.7904C92.3595 83.7904 104 72.1569 104 57.8061C104 43.4554 92.3595 31.8219 78 31.8219C63.6405 31.8219 52 43.4553 52 57.8061C52 72.1569 63.6405 83.7904 78 83.7904Z" fill="url(#paint1_linear_1_43)"/>
<path d="M75.1111 46.2576C75.1111 44.663 76.4045 43.3705 78 43.3705C79.5955 43.3705 80.8889 44.663 80.8889 46.2576V69.3547C80.8889 70.9492 79.5955 72.2418 78 72.2418C76.4045 72.2418 75.1111 70.9492 75.1111 69.3547V46.2576Z" fill="url(#paint2_linear_1_43)"/>
<path d="M66.4444 60.6933C64.8489 60.6933 63.5555 59.4007 63.5555 57.8061C63.5555 56.2116 64.8489 54.919 66.4444 54.919H89.5555C91.1511 54.919 92.4444 56.2116 92.4444 57.8061C92.4444 59.4007 91.1511 60.6933 89.5555 60.6933H66.4444Z" fill="url(#paint3_linear_1_43)"/>
<defs>
<linearGradient id="paint0_linear_1_43" x1="52" y1="0" x2="52" y2="104" gradientUnits="userSpaceOnUse">
<stop stop-color="#1100FF"/>
<stop offset="1" stop-color="#0084FF"/>
</linearGradient>
<linearGradient id="paint1_linear_1_43" x1="52" y1="0" x2="52" y2="104" gradientUnits="userSpaceOnUse">
<stop stop-color="#1100FF"/>
<stop offset="1" stop-color="#0084FF"/>
</linearGradient>
<linearGradient id="paint2_linear_1_43" x1="52" y1="0" x2="52" y2="104" gradientUnits="userSpaceOnUse">
<stop stop-color="#1100FF"/>
<stop offset="1" stop-color="#0084FF"/>
</linearGradient>
<linearGradient id="paint3_linear_1_43" x1="52" y1="0" x2="52" y2="104" gradientUnits="userSpaceOnUse">
<stop stop-color="#1100FF"/>
<stop offset="1" stop-color="#0084FF"/>
</linearGradient>
</defs>
</svg>
