<svg width="34" height="28" viewBox="0 0 34 28" fill="none" xmlns="http://www.w3.org/2000/svg">
<path d="M0.795943 26.3999C0.574669 26.3999 0.406028 26.3711 0.29002 26.3134C0.17616 26.2558 0.0988216 26.1615 0.058004 26.0307C0.0193347 25.8998 0 25.7257 0 25.5084V22.1618C0 22.0975 0.0107415 22.0487 0.0322244 22.0154C0.128898 21.8691 0.26424 21.7149 0.438252 21.553C0.470477 21.5264 0.498405 21.5131 0.522036 21.5131C0.547815 21.5131 0.574669 21.5264 0.602597 21.553C0.697122 21.6373 0.776609 21.7183 0.841058 21.7959C0.905507 21.8713 0.961362 21.9445 1.00862 22.0154C1.03011 22.0509 1.04085 22.0997 1.04085 22.1618V25.1125C1.04085 25.2611 1.06663 25.3676 1.11819 25.4319C1.16975 25.4962 1.26642 25.5283 1.40821 25.5283L2.3975 25.525C2.44906 25.525 2.48773 25.5339 2.51351 25.5516C2.56936 25.5915 2.62737 25.6392 2.68752 25.6947C2.74767 25.7501 2.81104 25.8166 2.87764 25.8943C2.89912 25.9231 2.90987 25.9464 2.90987 25.9641C2.90987 25.9841 2.89912 26.0063 2.87764 26.0307C2.81104 26.1083 2.74767 26.1748 2.68752 26.2302C2.62737 26.2857 2.56936 26.3334 2.51351 26.3733C2.48343 26.391 2.44476 26.3999 2.3975 26.3999H0.795943Z" fill="white"/>
<path d="M4.86589 26.4831C4.32452 26.4831 3.89593 26.3345 3.58013 26.0373C3.26434 25.7401 3.10644 25.2977 3.10644 24.71C3.10644 24.1068 3.26971 23.6566 3.59625 23.3594C3.92494 23.06 4.36319 22.9103 4.911 22.9103C5.43948 22.9103 5.8627 23.0578 6.18065 23.3527C6.49859 23.6455 6.65757 24.0779 6.65757 24.6501C6.65757 25.2467 6.49859 25.7013 6.18065 26.014C5.8627 26.3267 5.42445 26.4831 4.86589 26.4831ZM4.89811 25.678C5.13443 25.678 5.31274 25.6026 5.43304 25.4518C5.55334 25.2988 5.6135 25.0382 5.6135 24.6701C5.6135 24.3197 5.55227 24.0735 5.42982 23.9316C5.30951 23.7874 5.13013 23.7153 4.89167 23.7153C4.6618 23.7153 4.48027 23.793 4.34708 23.9482C4.21603 24.1012 4.15051 24.3507 4.15051 24.6967C4.15051 25.0582 4.21281 25.3121 4.33741 25.4585C4.46416 25.6048 4.65106 25.678 4.89811 25.678Z" fill="white"/>
<path d="M10.5406 23.3128V26.0107C10.5406 26.6583 10.3612 27.1517 10.0025 27.491C9.64585 27.8303 9.15604 28 8.53303 28C8.27523 28 8.07115 27.98 7.92077 27.9401C7.77038 27.9024 7.65653 27.8658 7.57919 27.8303C7.52978 27.8059 7.49755 27.7804 7.48251 27.7538C7.46103 27.7183 7.43633 27.6662 7.4084 27.5975C7.38262 27.5287 7.35791 27.4533 7.33428 27.3713C7.32784 27.3402 7.32676 27.3169 7.33106 27.3014C7.33965 27.2792 7.35576 27.256 7.3794 27.2316C7.41806 27.1916 7.47285 27.1451 7.54374 27.0918C7.61678 27.0386 7.67264 27.0042 7.71131 26.9887C7.75212 26.9732 7.78972 26.9754 7.82409 26.9954C7.87995 27.0264 7.95943 27.0608 8.06255 27.0985C8.16782 27.1384 8.31498 27.1584 8.50403 27.1584C8.80479 27.1584 9.04969 27.0785 9.23874 26.9189C9.42779 26.7592 9.52232 26.513 9.52232 26.1804V26.0606H9.50943C9.46217 26.1227 9.40094 26.1859 9.32575 26.2502C9.25056 26.3145 9.15281 26.3689 9.03251 26.4132C8.91435 26.4576 8.76182 26.4797 8.57492 26.4797C8.25053 26.4797 7.98414 26.4077 7.77576 26.2635C7.56952 26.1171 7.41699 25.9164 7.31817 25.6614C7.2215 25.4064 7.17316 25.1158 7.17316 24.7898C7.17316 24.4328 7.23009 24.1123 7.34395 23.8284C7.45781 23.5446 7.64901 23.3206 7.91754 23.1565C8.18608 22.9901 8.55344 22.907 9.01962 22.907C9.2989 22.907 9.53306 22.928 9.72211 22.9702C9.91331 23.0123 10.0734 23.0644 10.2023 23.1265C10.3312 23.1886 10.4439 23.2507 10.5406 23.3128ZM8.98417 23.712C8.73497 23.712 8.54484 23.7985 8.4138 23.9715C8.28275 24.1445 8.21723 24.4128 8.21723 24.7765C8.21723 25.3465 8.44495 25.6315 8.90039 25.6315C9.0787 25.6315 9.21511 25.5938 9.30964 25.5184C9.40416 25.443 9.47506 25.3476 9.52232 25.2323V23.8584C9.47506 23.8229 9.40846 23.7896 9.32253 23.7586C9.2366 23.7275 9.12381 23.712 8.98417 23.712Z" fill="white"/>
<path d="M12.9929 26.4831C12.4515 26.4831 12.0229 26.3345 11.7071 26.0373C11.3913 25.7401 11.2334 25.2977 11.2334 24.71C11.2334 24.1068 11.3967 23.6566 11.7232 23.3594C12.0519 23.06 12.4902 22.9103 13.038 22.9103C13.5665 22.9103 13.9897 23.0578 14.3076 23.3527C14.6256 23.6455 14.7846 24.0779 14.7846 24.6501C14.7846 25.2467 14.6256 25.7013 14.3076 26.014C13.9897 26.3267 13.5514 26.4831 12.9929 26.4831ZM13.0251 25.678C13.2614 25.678 13.4397 25.6026 13.56 25.4518C13.6803 25.2988 13.7405 25.0382 13.7405 24.6701C13.7405 24.3197 13.6793 24.0735 13.5568 23.9316C13.4365 23.7874 13.2571 23.7153 13.0187 23.7153C12.7888 23.7153 12.6073 23.793 12.4741 23.9482C12.343 24.1012 12.2775 24.3507 12.2775 24.6967C12.2775 25.0582 12.3398 25.3121 12.4644 25.4585C12.5912 25.6048 12.7781 25.678 13.0251 25.678Z" fill="white"/>
<path d="M18.4292 23.3428C18.5086 23.243 18.6311 23.1465 18.7965 23.0533C18.9641 22.958 19.1993 22.9103 19.5022 22.9103C19.9319 22.9103 20.2423 23.0245 20.4335 23.2529C20.6247 23.4814 20.7203 23.824 20.7203 24.2809V26.2236C20.7203 26.2901 20.7063 26.3367 20.6784 26.3633C20.6526 26.3877 20.6075 26.3999 20.5431 26.3999H19.8793C19.8148 26.3999 19.7686 26.3877 19.7407 26.3633C19.7149 26.3367 19.702 26.2901 19.702 26.2236V24.4538C19.702 24.2055 19.658 24.028 19.5699 23.9216C19.4818 23.8129 19.3497 23.7586 19.1735 23.7586C19.0167 23.7586 18.8921 23.7952 18.7997 23.8684C18.7095 23.9393 18.6451 24.0358 18.6064 24.1578V26.2236C18.6064 26.2901 18.5924 26.3367 18.5645 26.3633C18.5387 26.3877 18.4936 26.3999 18.4292 26.3999H17.7653C17.7009 26.3999 17.6547 26.3877 17.6268 26.3633C17.601 26.3367 17.5881 26.2901 17.5881 26.2236V24.4538C17.5881 24.2121 17.5398 24.0358 17.4431 23.9249C17.3464 23.814 17.2197 23.7586 17.0628 23.7586C16.9146 23.7586 16.7954 23.7963 16.7051 23.8717C16.6149 23.9471 16.5451 24.0425 16.4957 24.1578V26.2236C16.4957 26.2901 16.4817 26.3367 16.4538 26.3633C16.428 26.3877 16.3829 26.3999 16.3185 26.3999H15.6546C15.5902 26.3999 15.544 26.3877 15.5161 26.3633C15.4903 26.3367 15.4774 26.2901 15.4774 26.2236V23.4359C15.4774 23.3827 15.4881 23.3417 15.5096 23.3128C15.5547 23.2507 15.6084 23.1875 15.6707 23.1232C15.7352 23.0589 15.8136 22.9901 15.906 22.917C15.9339 22.8948 15.9608 22.8837 15.9865 22.8837C16.0102 22.8837 16.037 22.8948 16.0671 22.917C16.1573 22.9901 16.2347 23.06 16.2991 23.1265C16.3636 23.1931 16.4205 23.2618 16.4699 23.3328H16.486C16.5591 23.2374 16.6729 23.1432 16.8276 23.05C16.9823 22.9569 17.2036 22.9103 17.4914 22.9103C17.7664 22.9103 17.9705 22.9535 18.1037 23.04C18.2369 23.1243 18.3454 23.2252 18.4292 23.3428Z" fill="white"/>
<path d="M22.4475 26.4831C22.1317 26.4831 21.8804 26.3921 21.6935 26.2103C21.5087 26.0262 21.4164 25.7734 21.4164 25.4518C21.4164 25.2855 21.4454 25.1314 21.5034 24.9894C21.5635 24.8453 21.6666 24.7189 21.8127 24.6102C21.961 24.4993 22.1672 24.4106 22.4314 24.3441C22.6978 24.2775 23.0372 24.2387 23.4497 24.2276C23.4497 24.0258 23.4003 23.8806 23.3015 23.7919C23.2048 23.7031 23.0587 23.6588 22.8632 23.6588C22.6871 23.6588 22.5431 23.6898 22.4314 23.7519C22.3197 23.814 22.2499 23.8562 22.222 23.8783C22.1919 23.905 22.1554 23.9149 22.1124 23.9083C22.0544 23.8994 21.9921 23.8839 21.9255 23.8617C21.8611 23.8395 21.7912 23.814 21.716 23.7852C21.7053 23.7808 21.6935 23.7741 21.6806 23.7652C21.6677 23.7542 21.6602 23.7386 21.658 23.7187C21.658 23.7076 21.6591 23.6943 21.6613 23.6787C21.6634 23.661 21.6688 23.63 21.6774 23.5856C21.686 23.5412 21.6989 23.4869 21.716 23.4226C21.7332 23.3561 21.7493 23.3051 21.7644 23.2696C21.7837 23.2319 21.8159 23.1964 21.8611 23.1631C21.8976 23.1321 22.0082 23.0822 22.193 23.0134C22.3777 22.9447 22.6452 22.9103 22.9954 22.9103C23.9599 22.9103 24.4422 23.3949 24.4422 24.364V26.2469C24.4422 26.289 24.4304 26.3256 24.4068 26.3567C24.3853 26.3855 24.3477 26.3999 24.294 26.3999H23.8106C23.7763 26.3999 23.7451 26.3955 23.7172 26.3866C23.6914 26.3755 23.6667 26.3556 23.6431 26.3267L23.4433 26.0606H23.4207C23.3219 26.2092 23.1887 26.3167 23.0211 26.3833C22.8557 26.4498 22.6645 26.4831 22.4475 26.4831ZM22.802 25.7113C22.9997 25.7113 23.149 25.6592 23.2499 25.5549C23.3509 25.4507 23.4153 25.3432 23.4433 25.2323V24.863C23.1447 24.863 22.9202 24.8874 22.7698 24.9362C22.6216 24.9828 22.5227 25.0449 22.4733 25.1225C22.4239 25.1979 22.3992 25.28 22.3992 25.3687C22.3992 25.4973 22.4379 25.5871 22.5152 25.6381C22.5925 25.6869 22.6881 25.7113 22.802 25.7113Z" fill="white"/>
<path d="M26.2984 23.6255H26.3112C26.4724 23.1642 26.7624 22.9336 27.1813 22.9336C27.235 22.9336 27.2791 22.9369 27.3134 22.9436C27.3478 22.948 27.3714 22.9524 27.3843 22.9569C27.4165 22.968 27.4327 22.9935 27.4327 23.0334V23.8351C27.4327 23.9038 27.394 23.9227 27.3167 23.8916C27.2909 23.8806 27.2533 23.8695 27.2039 23.8584C27.1566 23.8451 27.09 23.8384 27.0041 23.8384C26.7828 23.8384 26.6099 23.9227 26.4853 24.0912C26.3607 24.2576 26.2984 24.4849 26.2984 24.7732V26.2236C26.2984 26.2901 26.2844 26.3367 26.2565 26.3633C26.2307 26.3877 26.1856 26.3999 26.1211 26.3999H25.4573C25.3929 26.3999 25.3467 26.3877 25.3187 26.3633C25.293 26.3367 25.2801 26.2901 25.2801 26.2236V23.4359C25.2801 23.3827 25.2908 23.3417 25.3123 23.3128C25.3574 23.2507 25.4111 23.1875 25.4734 23.1232C25.5379 23.0589 25.6163 22.9901 25.7087 22.917C25.7258 22.9036 25.743 22.8948 25.7602 22.8903C25.7774 22.8859 25.7924 22.8837 25.8053 22.8837C25.8354 22.8837 25.8655 22.8948 25.8956 22.917C26.0739 23.0611 26.1985 23.1842 26.2694 23.2862C26.2887 23.3128 26.2984 23.3439 26.2984 23.3794V23.6255Z" fill="white"/>
<path d="M29.5595 22.9103C29.8151 22.9103 30.0009 22.9325 30.117 22.9768C30.233 23.019 30.306 23.0522 30.3361 23.0766C30.3833 23.1077 30.4199 23.1476 30.4456 23.1964C30.4607 23.2208 30.4779 23.2629 30.4972 23.3228C30.5165 23.3827 30.5305 23.4481 30.5391 23.5191C30.5498 23.5745 30.5509 23.6144 30.5423 23.6388C30.5337 23.661 30.5069 23.6887 30.4618 23.722C30.4102 23.7575 30.3533 23.7896 30.291 23.8185C30.2308 23.8451 30.1814 23.8639 30.1427 23.875C30.1105 23.8839 30.0858 23.8861 30.0686 23.8817C30.0514 23.8772 30.0278 23.8639 29.9977 23.8417C29.9634 23.8174 29.915 23.7907 29.8527 23.7619C29.7904 23.7309 29.7045 23.7153 29.5949 23.7153C29.4553 23.7153 29.3221 23.7508 29.1953 23.8218C29.0707 23.8928 28.9687 23.9992 28.8892 24.1411C28.8119 24.2831 28.7732 24.4605 28.7732 24.6734C28.7732 24.9928 28.8538 25.24 29.0149 25.4152C29.1781 25.5904 29.3962 25.678 29.669 25.678C29.8087 25.678 29.9247 25.6636 30.0171 25.6348C30.1094 25.6037 30.1825 25.5727 30.2362 25.5416C30.2792 25.5172 30.3114 25.5117 30.3329 25.525C30.3565 25.5361 30.3748 25.5572 30.3876 25.5882L30.6229 26.1371C30.6465 26.1948 30.6336 26.2358 30.5842 26.2602C30.5047 26.3023 30.3737 26.35 30.1911 26.4032C30.0085 26.4565 29.7829 26.4831 29.5144 26.4831C28.9751 26.4831 28.5444 26.3356 28.2222 26.0406C27.8999 25.7435 27.7388 25.2999 27.7388 24.71C27.7388 24.333 27.8129 24.0103 27.9611 23.742C28.1094 23.4736 28.3199 23.2685 28.5927 23.1265C28.8656 22.9824 29.1878 22.9103 29.5595 22.9103Z" fill="white"/>
<path d="M32.0053 26.4831C31.6895 26.4831 31.4382 26.3921 31.2513 26.2103C31.0665 26.0262 30.9741 25.7734 30.9741 25.4518C30.9741 25.2855 31.0031 25.1314 31.0611 24.9894C31.1213 24.8453 31.2244 24.7189 31.3705 24.6102C31.5187 24.4993 31.725 24.4106 31.9892 24.3441C32.2556 24.2775 32.595 24.2387 33.0075 24.2276C33.0075 24.0258 32.9581 23.8806 32.8593 23.7919C32.7626 23.7031 32.6165 23.6588 32.421 23.6588C32.2448 23.6588 32.1009 23.6898 31.9892 23.7519C31.8775 23.814 31.8077 23.8562 31.7797 23.8783C31.7497 23.905 31.7131 23.9149 31.6702 23.9083C31.6122 23.8994 31.5499 23.8839 31.4833 23.8617C31.4188 23.8395 31.349 23.814 31.2738 23.7852C31.2631 23.7808 31.2513 23.7741 31.2384 23.7652C31.2255 23.7542 31.218 23.7386 31.2158 23.7187C31.2158 23.7076 31.2169 23.6943 31.219 23.6787C31.2212 23.661 31.2266 23.63 31.2351 23.5856C31.2437 23.5412 31.2566 23.4869 31.2738 23.4226C31.291 23.3561 31.3071 23.3051 31.3221 23.2696C31.3415 23.2319 31.3737 23.1964 31.4188 23.1631C31.4553 23.1321 31.566 23.0822 31.7507 23.0134C31.9355 22.9447 32.2029 22.9103 32.5531 22.9103C33.5177 22.9103 34 23.3949 34 24.364V26.2469C34 26.289 33.9882 26.3256 33.9646 26.3567C33.9431 26.3855 33.9055 26.3999 33.8518 26.3999H33.3684C33.334 26.3999 33.3029 26.3955 33.275 26.3866C33.2492 26.3755 33.2245 26.3556 33.2008 26.3267L33.001 26.0606H32.9785C32.8797 26.2092 32.7465 26.3167 32.5789 26.3833C32.4135 26.4498 32.2223 26.4831 32.0053 26.4831ZM32.3598 25.7113C32.5574 25.7113 32.7067 25.6592 32.8077 25.5549C32.9087 25.4507 32.9731 25.3432 33.001 25.2323V24.863C32.7024 24.863 32.4779 24.8874 32.3275 24.9362C32.1793 24.9828 32.0805 25.0449 32.0311 25.1225C31.9817 25.1979 31.957 25.28 31.957 25.3687C31.957 25.4973 31.9956 25.5871 32.073 25.6381C32.1503 25.6869 32.2459 25.7113 32.3598 25.7113Z" fill="white"/>
<path fill-rule="evenodd" clip-rule="evenodd" d="M24.3244 1.59018C22.0883 -1.0864 18.9824 0.326372 17.5645 1.20394L20.2142 3.57314C20.4131 3.751 20.4346 4.06158 20.2622 4.26679C20.0898 4.47204 19.7888 4.49422 19.5899 4.31636L16.0151 1.12002C15.9946 1.10168 15.9759 1.08192 15.9592 1.06101C13.4086 -0.731745 11.1587 -0.173598 9.31286 2.13985C7.65995 4.21152 8.78689 7.94581 9.59702 10.6302C9.79018 11.2703 9.96533 11.8507 10.0805 12.3346C10.6787 14.8482 11.2509 16.4144 12.5558 17.548C13.202 18.1093 13.9347 17.1446 14.7078 16.1269C15.3781 15.2445 16.0786 14.3223 16.7794 14.3201C17.4687 14.3179 18.1582 15.2387 18.8192 16.1214C19.5821 17.1403 20.307 18.1085 20.9498 17.548C22.0087 16.6247 22.4536 15.9626 23.0507 13.9018C22.5245 14.1395 21.9431 14.2713 21.3319 14.2713C18.9628 14.2713 17.0422 12.2899 17.0422 9.84566C17.0422 7.4014 18.9628 5.41997 21.3319 5.41997C22.9719 5.41997 24.3969 6.36943 25.1187 7.76455L25.2055 7.50801C25.8063 5.53893 25.9436 3.52829 24.3244 1.59018Z" fill="white"/>
<path fill-rule="evenodd" clip-rule="evenodd" d="M21.3319 13.2879C23.1746 13.2879 24.6684 11.7467 24.6684 9.84566C24.6684 7.94458 23.1746 6.40346 21.3319 6.40346C19.4893 6.40346 17.9955 7.94458 17.9955 9.84566C17.9955 11.7467 19.4893 13.2879 21.3319 13.2879ZM21.3319 14.2713C23.7011 14.2713 25.6216 12.2899 25.6216 9.84566C25.6216 7.4014 23.7011 5.41997 21.3319 5.41997C18.9628 5.41997 17.0422 7.4014 17.0422 9.84566C17.0422 12.2899 18.9628 14.2713 21.3319 14.2713Z" fill="white"/>
<path d="M20.8553 7.87868C20.8553 7.6071 21.0687 7.38694 21.3319 7.38694C21.5952 7.38694 21.8086 7.6071 21.8086 7.87868V11.8126C21.8086 12.0842 21.5952 12.3044 21.3319 12.3044C21.0687 12.3044 20.8553 12.0842 20.8553 11.8126V7.87868Z" fill="white"/>
<path d="M19.4254 10.3374C19.1621 10.3374 18.9488 10.1172 18.9488 9.84565C18.9488 9.57407 19.1621 9.35391 19.4254 9.35391H23.2385C23.5017 9.35391 23.7151 9.57407 23.7151 9.84565C23.7151 10.1172 23.5017 10.3374 23.2385 10.3374H19.4254Z" fill="white"/>
</svg>
