<svg width="17" height="17" viewBox="0 0 17 17" fill="none" xmlns="http://www.w3.org/2000/svg">
<path d="M8.41254 0.75C9.93275 0.75013 11.1957 2.01753 11.1957 3.61816C11.1955 5.21862 9.93263 6.48522 8.41254 6.48535C6.89234 6.48535 5.62953 5.2187 5.62933 3.61816C5.62933 2.01745 6.89222 0.75 8.41254 0.75Z" stroke="white" stroke-width="1.5"/>
<path d="M8.41309 9.13428C9.97606 9.13437 11.4297 9.61917 12.6426 10.4536C13.4593 11.0156 13.7861 11.6185 13.8574 12.1606C13.9306 12.7178 13.7509 13.3422 13.3018 13.9614C12.3918 15.2158 10.5076 16.2495 8.41406 16.2495C6.31923 16.2494 4.43517 15.2148 3.52539 13.9595C3.07627 13.3398 2.89616 12.7151 2.96973 12.1577C3.04146 11.6153 3.36961 11.0125 4.1875 10.4507C5.39985 9.61808 6.85194 9.13428 8.41309 9.13428Z" stroke="white" stroke-width="1.5"/>
</svg>
