<svg width="16" height="16" viewBox="0 0 16 16" fill="none" xmlns="http://www.w3.org/2000/svg">
<path fill-rule="evenodd" clip-rule="evenodd" d="M12.4884 0C12.8742 0 13.2441 0.153244 13.5169 0.426029L15.574 2.48306C15.8468 2.75585 16 3.12581 16 3.51159V13.8182C16 15.0232 15.0232 16 13.8182 16H2.18182C0.976837 16 0 15.0232 0 13.8182V2.18182C0 0.976837 0.976837 0 2.18182 0H12.4884ZM2.18182 1.45455C1.78016 1.45455 1.45455 1.78016 1.45455 2.18182V13.8182C1.45455 14.2199 1.78016 14.5455 2.18182 14.5455H2.90909V10.1818C2.90909 8.9768 3.88593 8 5.09091 8H10.9091C12.1141 8 13.0909 8.9768 13.0909 10.1818V14.5455H13.8182C14.2199 14.5455 14.5455 14.2199 14.5455 13.8182V4.23886C14.5455 3.85308 14.3922 3.48312 14.1194 3.21033L12.7897 1.88057C12.5169 1.60779 12.1469 1.45455 11.7612 1.45455H11.6364V2.90909C11.6364 4.11407 10.6596 5.09091 9.45455 5.09091H6.54546C5.34047 5.09091 4.36364 4.11407 4.36364 2.90909V1.45455H2.18182ZM11.6364 14.5455V10.1818C11.6364 9.78015 11.3108 9.45455 10.9091 9.45455H5.09091C4.68925 9.45455 4.36364 9.78015 4.36364 10.1818V14.5455H11.6364ZM5.81818 1.45455H10.1818V2.90909C10.1818 3.31075 9.85622 3.63636 9.45455 3.63636H6.54546C6.1438 3.63636 5.81818 3.31075 5.81818 2.90909V1.45455Z" fill="white"/>
</svg>
