<svg width="16" height="16" viewBox="0 0 16 16" fill="none" xmlns="http://www.w3.org/2000/svg">
<path d="M15.3122 14.862L10.904 10.312C11.7579 9.22334 12.272 7.84 12.272 6.33334C12.272 2.84134 9.51917 0 6.13598 0C2.75278 0 0 2.84131 0 6.33331C0 9.82531 2.75281 12.6667 6.13601 12.6667C7.59572 12.6667 8.93596 12.136 9.9907 11.2547L14.3989 15.8047C14.5249 15.9347 14.6902 16 14.8556 16C15.021 16 15.1863 15.9347 15.3122 15.8047C15.5648 15.544 15.5648 15.1227 15.3122 14.862ZM6.13601 11.3333C3.46458 11.3333 1.2918 9.09066 1.2918 6.33331C1.2918 3.57597 3.46458 1.33331 6.13601 1.33331C8.80744 1.33331 10.9802 3.57597 10.9802 6.33331C10.9802 9.09066 8.80741 11.3333 6.13601 11.3333Z" fill="#8F8F8F"/>
</svg>
