<svg width="14" height="14" viewBox="0 0 14 14" fill="none" xmlns="http://www.w3.org/2000/svg">
<path d="M11.6299 0.561523C11.712 0.479538 11.8462 0.478702 11.9297 0.561523L13.4385 2.07129C13.5206 2.15356 13.5208 2.28758 13.4375 2.37109L8.80859 7L13.4385 11.6299C13.5208 11.7124 13.5209 11.8472 13.4385 11.9297L11.9297 13.4385C11.8474 13.5207 11.7124 13.5208 11.6289 13.4375L7 8.80859L2.37012 13.4385C2.2979 13.5106 2.18645 13.519 2.10449 13.4648L2.07129 13.4385L0.561523 11.9297C0.479314 11.8475 0.478324 11.7125 0.561523 11.6289L4.83789 7.35352L5.19141 7L0.561523 2.37012C0.479369 2.28775 0.478591 2.1528 0.560547 2.07031L0.561523 2.07129L2.07227 0.5625V0.561523C2.15478 0.479335 2.2887 0.47913 2.37109 0.561523L6.64648 4.83887L7 5.19238L7.35352 4.83887L11.6299 0.561523Z" fill="#454545" stroke="white"/>
</svg>
