<svg width="16" height="16" viewBox="0 0 16 16" fill="none" xmlns="http://www.w3.org/2000/svg">
<path d="M7.73419 0.100342C9.74754 0.100342 11.6793 0.896088 13.1063 2.31421L13.1072 2.31519C14.3651 3.5891 15.1334 5.26536 15.2762 7.04858C15.4188 8.83168 14.9267 10.6081 13.8875 12.0652C12.8483 13.5223 11.3279 14.5667 9.59357 15.0154C7.86969 15.4614 6.04448 15.29 4.43439 14.532L0.554504 15.2976L0.545715 15.2996H0.479309C0.419314 15.2996 0.359911 15.2858 0.306458 15.2585C0.252878 15.2312 0.206869 15.1911 0.171692 15.1423C0.13649 15.0935 0.113263 15.0368 0.104309 14.9773C0.0954317 14.9179 0.100755 14.8574 0.119934 14.8005V14.7996L1.20685 11.6062C0.345786 10.1559 -0.0117293 8.46153 0.191223 6.78687C0.396073 5.09661 1.16036 3.5231 2.36212 2.31519V2.31421C3.78902 0.895957 5.72081 0.100436 7.73419 0.100342ZM7.73419 0.832764C6.8338 0.832811 5.942 1.00923 5.11017 1.35327C4.27844 1.69728 3.52213 2.20112 2.88556 2.83667C1.79019 3.94171 1.1023 5.38508 0.932434 6.93042C0.762662 8.47582 1.12162 10.0335 1.95099 11.3494C1.98126 11.3972 2.00003 11.4514 2.00665 11.5076C2.01322 11.5639 2.0076 11.6219 1.98907 11.6755L1.05157 14.4324L4.41388 13.7644L4.45685 13.7527L4.47052 13.7488H4.48419C4.54286 13.7491 4.60079 13.7634 4.65314 13.7898C6.10808 14.5143 7.77445 14.6998 9.35333 14.3123C10.9322 13.9246 12.3218 12.9891 13.2742 11.6736C14.2267 10.3579 14.6802 8.747 14.5535 7.12866C14.4347 5.61168 13.8137 4.18046 12.7928 3.05835L12.5828 2.83765C11.9462 2.20202 11.19 1.69731 10.3582 1.35327C9.52643 1.00933 8.63451 0.832764 7.73419 0.832764ZM5.02911 3.00171L5.78204 3.02612L5.83771 3.03296C5.89245 3.04316 5.94452 3.06556 5.99005 3.09839C6.05062 3.14212 6.09768 3.20225 6.12384 3.27222H6.12286C6.2068 3.49428 6.38495 3.97472 6.54181 4.448C6.62019 4.6845 6.69379 4.92047 6.74786 5.12183C6.80087 5.31925 6.83868 5.49572 6.83868 5.6062C6.83857 5.80408 6.75047 5.97357 6.63654 6.11792C6.52306 6.26157 6.37568 6.38967 6.24591 6.50269L6.24493 6.50366C6.20897 6.53418 6.16732 6.57286 6.13068 6.60718C6.39971 7.08698 6.71713 7.53799 7.0799 7.9519C7.49608 8.31625 7.94963 8.63501 8.43243 8.90503C8.46778 8.86692 8.50737 8.82495 8.53888 8.78979C8.65186 8.66049 8.78003 8.5143 8.9256 8.40112C9.07281 8.28669 9.24651 8.19995 9.45099 8.19995C9.5616 8.20004 9.73785 8.23693 9.93536 8.28979C10.137 8.34377 10.3733 8.41761 10.6102 8.49585C11.0842 8.65244 11.5655 8.83003 11.7879 8.91382C11.8578 8.93996 11.9189 8.98613 11.9627 9.04663C12.0065 9.10722 12.0312 9.17995 12.034 9.25464L12.0594 10.0066V10.0076C12.0657 10.2343 11.9883 10.455 11.8436 10.6296C11.588 10.9444 11.2683 11.2018 10.9051 11.3826C10.5424 11.5631 10.145 11.6629 9.74005 11.6775L9.74103 11.6785H9.46759V11.6775C8.70369 11.5942 7.85082 11.1786 7.1297 10.7263C6.40653 10.2727 5.80233 9.77367 5.53302 9.5105L5.53204 9.50952C5.26777 9.24564 4.76689 8.64189 4.31232 7.9187C3.85904 7.19751 3.44231 6.34345 3.36017 5.58081L3.3465 5.35425C3.32774 4.24575 4.07194 3.49678 4.40216 3.21753L4.46954 3.16479C4.60899 3.06658 4.77374 3.01017 4.94415 3.00171H5.02911ZM5.01935 3.75562C4.97665 3.75419 4.93452 3.76809 4.90118 3.79468C4.62671 4.02519 4.03132 4.63551 4.12579 5.49487C4.19438 6.12825 4.56429 6.878 4.98322 7.53589C5.40057 8.19131 5.85702 8.74055 6.08185 8.97046L6.15607 9.04663C6.41705 9.288 6.91749 9.6919 7.5047 10.0632C8.16614 10.4815 8.92021 10.8502 9.5506 10.9187L9.70978 10.9285C10.488 10.9376 11.0372 10.4004 11.2547 10.1453C11.2815 10.1119 11.2971 10.0698 11.2957 10.0271L11.2781 9.53589C10.6822 9.30069 10.07 9.10903 9.44611 8.96265C9.43902 8.96655 9.42983 8.97317 9.41779 8.98218C9.38871 9.00395 9.35298 9.03516 9.31525 9.073C9.24019 9.14827 9.16445 9.23727 9.11603 9.29272C9.02282 9.39946 8.93112 9.50426 8.8338 9.58081C8.73377 9.65945 8.62024 9.7146 8.48224 9.7146C8.42001 9.71458 8.34865 9.6954 8.27716 9.6687C8.20347 9.64114 8.12021 9.60155 8.03302 9.55542C7.85861 9.46311 7.65904 9.33823 7.46368 9.20581C7.07446 8.94197 6.6897 8.64058 6.54474 8.49585C6.3995 8.35082 6.09961 7.96478 5.83771 7.57593C5.70608 7.38048 5.58168 7.18086 5.49005 7.00757C5.44429 6.92101 5.40607 6.83899 5.37872 6.76636C5.3522 6.6959 5.33285 6.6254 5.33282 6.56421C5.33282 6.42954 5.38864 6.31835 5.46661 6.21948C5.54257 6.1232 5.64646 6.02993 5.75275 5.93335L5.75372 5.93237L5.97052 5.73315C6.00814 5.6956 6.04057 5.66028 6.06329 5.63062C6.07324 5.61762 6.07921 5.60647 6.0838 5.59839C5.93717 4.97657 5.74578 4.36627 5.51056 3.77222L5.01935 3.75562Z" fill="white" stroke="white" stroke-width="0.2"/>
</svg>
